<svg width="128" height="129" viewBox="0 0 128 129" fill="none" xmlns="http://www.w3.org/2000/svg">
<g filter="url(#filter0_d_93_228)">
<circle cx="64" cy="56" r="38" fill="url(#paint0_linear_93_228)"/>
<circle cx="64" cy="56" r="38" fill="url(#paint1_linear_93_228)" fill-opacity="0.7"/>
<path d="M74.2923 55.3814H85.4121V76.6528C82.557 78.7999 79.2511 80.4477 75.4944 81.5961C71.7377 82.7446 67.956 83.3188 64.1493 83.3188C58.6896 83.3188 53.7808 82.1704 49.4231 79.8735C45.0653 77.5266 41.6342 74.306 39.1298 70.2115C36.6754 66.067 35.4482 61.3983 35.4482 56.2053C35.4482 51.0123 36.6754 46.3685 39.1298 42.2741C41.6342 38.1296 45.0904 34.909 49.4982 32.6121C53.906 30.2652 58.8649 29.0918 64.3747 29.0918C68.9828 29.0918 73.1653 29.8658 76.922 31.4137C80.6786 32.9616 83.8342 35.2086 86.3888 38.1546L78.5749 45.3449C74.8182 41.4002 70.2852 39.4279 64.9757 39.4279C61.6198 39.4279 58.6395 40.1269 56.0348 41.5251C53.4302 42.9232 51.4016 44.8955 49.949 47.4421C48.4964 49.9887 47.7701 52.9097 47.7701 56.2053C47.7701 59.4509 48.4964 62.347 49.949 64.8936C51.4016 67.4402 53.4052 69.4375 55.9597 70.8856C58.5643 72.2837 61.5196 72.9827 64.8255 72.9827C68.3317 72.9827 71.4873 72.2337 74.2923 70.7358V55.3814Z" fill="white"/>
</g>
<defs>
<filter id="filter0_d_93_228" x="0.118919" y="0.745946" width="127.762" height="127.762" filterUnits="userSpaceOnUse" color-interpolation-filters="sRGB">
<feFlood flood-opacity="0" result="BackgroundImageFix"/>
<feColorMatrix in="SourceAlpha" type="matrix" values="0 0 0 0 0 0 0 0 0 0 0 0 0 0 0 0 0 0 127 0" result="hardAlpha"/>
<feOffset dy="8.62703"/>
<feGaussianBlur stdDeviation="12.9405"/>
<feComposite in2="hardAlpha" operator="out"/>
<feColorMatrix type="matrix" values="0 0 0 0 0.158958 0 0 0 0 0.413746 0 0 0 0 0.908333 0 0 0 0.4 0"/>
<feBlend mode="normal" in2="BackgroundImageFix" result="effect1_dropShadow_93_228"/>
<feBlend mode="normal" in="SourceGraphic" in2="effect1_dropShadow_93_228" result="shape"/>
</filter>
<linearGradient id="paint0_linear_93_228" x1="64" y1="18" x2="26.5705" y2="89.5726" gradientUnits="userSpaceOnUse">
<stop stop-color="#0D071C"/>
<stop offset="1" stop-color="#38ACFF"/>
</linearGradient>
<linearGradient id="paint1_linear_93_228" x1="45.7189" y1="27.8595" x2="94.9026" y2="79.7466" gradientUnits="userSpaceOnUse">
<stop stop-opacity="0"/>
<stop offset="1" stop-color="#ED1FFF"/>
</linearGradient>
</defs>
</svg>
