<svg width="214" height="90" viewBox="0 0 214 90" fill="none" xmlns="http://www.w3.org/2000/svg">
<g clip-path="url(#clip0_93_100)">
<g filter="url(#filter0_d_93_100)">
<circle cx="44.6264" cy="37.8552" r="18.9789" fill="#48258F"/>
<circle cx="44.6264" cy="37.8552" r="18.9789" fill="url(#paint0_radial_93_100)"/>
<circle cx="44.6264" cy="37.8552" r="18.9789" fill="url(#paint1_radial_93_100)"/>
<circle cx="44.6264" cy="37.8552" r="18.9789" fill="url(#paint2_radial_93_100)"/>
<circle cx="44.6264" cy="37.8552" r="18.9789" fill="url(#paint3_radial_93_100)"/>
<path fill-rule="evenodd" clip-rule="evenodd" d="M44.6264 58.8859C56.2413 58.8859 65.6571 49.4702 65.6571 37.8552C65.6571 26.2403 56.2413 16.8246 44.6264 16.8246C33.0115 16.8246 23.5957 26.2403 23.5957 37.8552C23.5957 49.4702 33.0115 58.8859 44.6264 58.8859ZM44.6262 58.014C55.7597 58.014 64.7852 48.9886 64.7852 37.8551C64.7852 26.7216 55.7597 17.6962 44.6262 17.6962C33.4928 17.6962 24.4673 26.7216 24.4673 37.8551C24.4673 48.9886 33.4928 58.014 44.6262 58.014Z" fill="#48258F"/>
<path fill-rule="evenodd" clip-rule="evenodd" d="M44.6264 58.8859C56.2413 58.8859 65.6571 49.4702 65.6571 37.8552C65.6571 26.2403 56.2413 16.8246 44.6264 16.8246C33.0115 16.8246 23.5957 26.2403 23.5957 37.8552C23.5957 49.4702 33.0115 58.8859 44.6264 58.8859ZM44.6262 58.014C55.7597 58.014 64.7852 48.9886 64.7852 37.8551C64.7852 26.7216 55.7597 17.6962 44.6262 17.6962C33.4928 17.6962 24.4673 26.7216 24.4673 37.8551C24.4673 48.9886 33.4928 58.014 44.6262 58.014Z" fill="url(#paint4_radial_93_100)"/>
<path fill-rule="evenodd" clip-rule="evenodd" d="M44.6264 58.8859C56.2413 58.8859 65.6571 49.4702 65.6571 37.8552C65.6571 26.2403 56.2413 16.8246 44.6264 16.8246C33.0115 16.8246 23.5957 26.2403 23.5957 37.8552C23.5957 49.4702 33.0115 58.8859 44.6264 58.8859ZM44.6262 58.014C55.7597 58.014 64.7852 48.9886 64.7852 37.8551C64.7852 26.7216 55.7597 17.6962 44.6262 17.6962C33.4928 17.6962 24.4673 26.7216 24.4673 37.8551C24.4673 48.9886 33.4928 58.014 44.6262 58.014Z" fill="url(#paint5_radial_93_100)"/>
<path fill-rule="evenodd" clip-rule="evenodd" d="M44.6264 58.8859C56.2413 58.8859 65.6571 49.4702 65.6571 37.8552C65.6571 26.2403 56.2413 16.8246 44.6264 16.8246C33.0115 16.8246 23.5957 26.2403 23.5957 37.8552C23.5957 49.4702 33.0115 58.8859 44.6264 58.8859ZM44.6262 58.014C55.7597 58.014 64.7852 48.9886 64.7852 37.8551C64.7852 26.7216 55.7597 17.6962 44.6262 17.6962C33.4928 17.6962 24.4673 26.7216 24.4673 37.8551C24.4673 48.9886 33.4928 58.014 44.6262 58.014Z" fill="url(#paint6_radial_93_100)"/>
<path fill-rule="evenodd" clip-rule="evenodd" d="M44.6264 58.8859C56.2413 58.8859 65.6571 49.4702 65.6571 37.8552C65.6571 26.2403 56.2413 16.8246 44.6264 16.8246C33.0115 16.8246 23.5957 26.2403 23.5957 37.8552C23.5957 49.4702 33.0115 58.8859 44.6264 58.8859ZM44.6262 58.014C55.7597 58.014 64.7852 48.9886 64.7852 37.8551C64.7852 26.7216 55.7597 17.6962 44.6262 17.6962C33.4928 17.6962 24.4673 26.7216 24.4673 37.8551C24.4673 48.9886 33.4928 58.014 44.6262 58.014Z" fill="url(#paint7_radial_93_100)"/>
</g>
<path d="M49.975 37.2963H55.4707V47.7981C54.0596 48.8582 52.4258 49.6717 50.5692 50.2387C48.7125 50.8057 46.8435 51.0892 44.9621 51.0892C42.2638 51.0892 39.8378 50.5222 37.6841 49.3882C35.5303 48.2295 33.8346 46.6395 32.5969 44.618C31.3838 42.5719 30.7773 40.2669 30.7773 37.7031C30.7773 35.1393 31.3838 32.8466 32.5969 30.8252C33.8346 28.779 35.5427 27.189 37.7212 26.055C39.8996 24.8963 42.3504 24.317 45.0735 24.317C47.351 24.317 49.418 24.6991 51.2747 25.4633C53.1313 26.2275 54.6909 27.3369 55.9534 28.7914L52.0916 32.3413C50.235 30.3937 47.9946 29.42 45.3706 29.42C43.712 29.42 42.239 29.7651 40.9517 30.4554C39.6645 31.1456 38.6619 32.1194 37.944 33.3766C37.2261 34.6339 36.8671 36.0761 36.8671 37.7031C36.8671 39.3055 37.2261 40.7353 37.944 41.9926C38.6619 43.2498 39.6521 44.2359 40.9146 44.9508C42.2019 45.6411 43.6624 45.9862 45.2963 45.9862C47.0292 45.9862 48.5887 45.6164 49.975 44.8769V37.2963Z" fill="white"/>
<path d="M80.7761 30.7512V50.6454H75.2805V48.2788C74.5131 49.1417 73.5971 49.8073 72.5326 50.2757C71.4682 50.7194 70.3171 50.9413 69.0793 50.9413C66.4552 50.9413 64.3758 50.1894 62.841 48.6856C61.3062 47.1818 60.5387 44.9508 60.5387 41.9926V30.7512H66.3315V41.1421C66.3315 44.3468 67.6806 45.9492 70.3789 45.9492C71.7652 45.9492 72.8792 45.5055 73.7209 44.618C74.5626 43.7059 74.9834 42.3623 74.9834 40.5874V30.7512H80.7761Z" fill="white"/>
<path d="M86.1427 30.7512H91.9354V50.6454H86.1427V30.7512ZM89.0391 27.9778C87.9746 27.9778 87.1082 27.6697 86.4398 27.0534C85.7714 26.4371 85.4372 25.6729 85.4372 24.7607C85.4372 23.8486 85.7714 23.0844 86.4398 22.4681C87.1082 21.8518 87.9746 21.5436 89.0391 21.5436C90.1035 21.5436 90.97 21.8395 91.6384 22.4311C92.3068 23.0228 92.641 23.7623 92.641 24.6498C92.641 25.6112 92.3068 26.4124 91.6384 27.0534C90.97 27.6697 90.1035 27.9778 89.0391 27.9778Z" fill="white"/>
<path d="M110.197 49.684C109.627 50.1031 108.922 50.4236 108.08 50.6454C107.263 50.8427 106.397 50.9413 105.481 50.9413C103.104 50.9413 101.26 50.3373 99.948 49.1293C98.6607 47.9214 98.0171 46.1464 98.0171 43.8045V35.6323H94.9351V31.1949H98.0171V26.3508H103.81V31.1949H108.786V35.6323H103.81V43.7305C103.81 44.5687 104.02 45.222 104.441 45.6904C104.887 46.1341 105.506 46.356 106.298 46.356C107.214 46.356 107.993 46.1095 108.637 45.6164L110.197 49.684Z" fill="white"/>
<path d="M121.506 30.4554C124.601 30.4554 126.977 31.1949 128.636 32.6741C130.294 34.1285 131.124 36.3349 131.124 39.2932V50.6454H125.702V48.1679C124.613 50.0168 122.583 50.9413 119.612 50.9413C118.078 50.9413 116.741 50.6824 115.602 50.1647C114.488 49.647 113.634 48.9321 113.04 48.02C112.446 47.1079 112.149 46.0725 112.149 44.9138C112.149 43.0649 112.842 41.6104 114.228 40.5504C115.639 39.4904 117.805 38.9603 120.726 38.9603H125.331C125.331 37.7031 124.947 36.7417 124.18 36.0761C123.412 35.3858 122.261 35.0407 120.726 35.0407C119.662 35.0407 118.61 35.2132 117.57 35.5584C116.555 35.8788 115.689 36.3226 114.971 36.8896L112.891 32.859C113.981 32.0947 115.28 31.5031 116.79 31.084C118.325 30.6649 119.897 30.4554 121.506 30.4554ZM121.061 47.0586C122.051 47.0586 122.93 46.8367 123.697 46.393C124.464 45.9246 125.009 45.2466 125.331 44.3592V42.3254H121.358C118.981 42.3254 117.793 43.1019 117.793 44.655C117.793 45.3945 118.078 45.9862 118.647 46.4299C119.241 46.849 120.046 47.0586 121.061 47.0586Z" fill="white"/>
<path d="M141.899 33.3766C142.592 32.4152 143.521 31.688 144.684 31.1949C145.872 30.7019 147.234 30.4554 148.769 30.4554V35.7802C148.125 35.7309 147.692 35.7063 147.469 35.7063C145.81 35.7063 144.511 36.1747 143.57 37.1114C142.629 38.0236 142.159 39.4041 142.159 41.253V50.6454H136.366V30.7512H141.899V33.3766Z" fill="white"/>
<path d="M172.381 23.2077V50.6454H166.848V48.3528C165.412 50.0784 163.333 50.9413 160.609 50.9413C158.728 50.9413 157.02 50.5222 155.485 49.684C153.975 48.8458 152.787 47.6502 151.92 46.0971C151.054 44.544 150.621 42.7444 150.621 40.6983C150.621 38.6522 151.054 36.8526 151.92 35.2995C152.787 33.7464 153.975 32.5508 155.485 31.7126C157.02 30.8745 158.728 30.4554 160.609 30.4554C163.159 30.4554 165.152 31.2566 166.588 32.859V23.2077H172.381ZM161.612 46.2081C163.073 46.2081 164.286 45.715 165.251 44.7289C166.216 43.7182 166.699 42.3747 166.699 40.6983C166.699 39.022 166.216 37.6908 165.251 36.7047C164.286 35.6939 163.073 35.1886 161.612 35.1886C160.127 35.1886 158.901 35.6939 157.936 36.7047C156.97 37.6908 156.488 39.022 156.488 40.6983C156.488 42.3747 156.97 43.7182 157.936 44.7289C158.901 45.715 160.127 46.2081 161.612 46.2081Z" fill="white"/>
<path d="M187.248 50.9413C185.144 50.9413 183.25 50.5099 181.567 49.647C179.908 48.7596 178.608 47.5393 177.668 45.9862C176.727 44.4331 176.257 42.6705 176.257 40.6983C176.257 38.7262 176.727 36.9635 177.668 35.4104C178.608 33.8574 179.908 32.6494 181.567 31.7866C183.25 30.8991 185.144 30.4554 187.248 30.4554C189.352 30.4554 191.234 30.8991 192.892 31.7866C194.551 32.6494 195.85 33.8574 196.791 35.4104C197.732 36.9635 198.202 38.7262 198.202 40.6983C198.202 42.6705 197.732 44.4331 196.791 45.9862C195.85 47.5393 194.551 48.7596 192.892 49.647C191.234 50.5099 189.352 50.9413 187.248 50.9413ZM187.248 46.2081C188.733 46.2081 189.946 45.715 190.887 44.7289C191.852 43.7182 192.335 42.3747 192.335 40.6983C192.335 39.022 191.852 37.6908 190.887 36.7047C189.946 35.6939 188.733 35.1886 187.248 35.1886C185.763 35.1886 184.537 35.6939 183.572 36.7047C182.606 37.6908 182.124 39.022 182.124 40.6983C182.124 42.3747 182.606 43.7182 183.572 44.7289C184.537 45.715 185.763 46.2081 187.248 46.2081Z" fill="white"/>
<g style="mix-blend-mode:screen" opacity="0.8" filter="url(#filter1_f_93_100)">
<ellipse cx="44.7287" cy="37.8552" rx="28.7248" ry="11.3873" fill="url(#paint8_linear_93_100)"/>
</g>
<path d="M78.5009 61.6763V69.1448H68.6426V61.6763H70.3603V67.7364H72.7182V61.6763H74.436V67.7364H76.7832V61.6763H78.5009Z" fill="white"/>
<path d="M82.7543 66.9683H81.8901V69.1448H80.2257V63.4047H81.8901V65.6346H82.7863L84.344 63.4047H86.1151L84.1093 66.1574L86.2538 69.1448H84.2907L82.7543 66.9683Z" fill="white"/>
<path d="M89.5826 69.2301C88.978 69.2301 88.4339 69.1057 87.9502 68.8567C87.4736 68.6007 87.1002 68.2486 86.8299 67.8005C86.5597 67.3524 86.4245 66.8438 86.4245 66.2748C86.4245 65.7057 86.5597 65.1972 86.8299 64.7491C87.1002 64.301 87.4736 63.9524 87.9502 63.7035C88.4339 63.4474 88.978 63.3194 89.5826 63.3194C90.1872 63.3194 90.7278 63.4474 91.2043 63.7035C91.6809 63.9524 92.0543 64.301 92.3246 64.7491C92.5949 65.1972 92.73 65.7057 92.73 66.2748C92.73 66.8438 92.5949 67.3524 92.3246 67.8005C92.0543 68.2486 91.6809 68.6007 91.2043 68.8567C90.7278 69.1057 90.1872 69.2301 89.5826 69.2301ZM89.5826 67.8645C90.0094 67.8645 90.3579 67.7222 90.6282 67.4377C90.9056 67.1461 91.0443 66.7584 91.0443 66.2748C91.0443 65.7911 90.9056 65.407 90.6282 65.1225C90.3579 64.8309 90.0094 64.685 89.5826 64.685C89.1558 64.685 88.8037 64.8309 88.5263 65.1225C88.2489 65.407 88.1102 65.7911 88.1102 66.2748C88.1102 66.7584 88.2489 67.1461 88.5263 67.4377C88.8037 67.7222 89.1558 67.8645 89.5826 67.8645Z" fill="white"/>
<path d="M99.2968 63.4047V69.1448H97.6324V64.7704H95.8186L95.7652 65.784C95.7368 66.5379 95.6657 67.1639 95.5519 67.6618C95.4381 68.1597 95.2531 68.5509 94.9971 68.8354C94.741 69.1199 94.3854 69.2621 93.9301 69.2621C93.6883 69.2621 93.4002 69.2195 93.0659 69.1341L93.1513 67.7685C93.2651 67.7827 93.3469 67.7898 93.3967 67.7898C93.6456 67.7898 93.8306 67.7009 93.9515 67.5231C94.0795 67.3381 94.1649 67.107 94.2075 66.8296C94.2502 66.545 94.2822 66.1716 94.3036 65.7093L94.3889 63.4047H99.2968Z" fill="white"/>
<path d="M103.127 63.3194C104.016 63.3194 104.699 63.5328 105.176 63.9595C105.652 64.3792 105.891 65.0158 105.891 65.8693V69.1448H104.333V68.4299C104.02 68.9634 103.437 69.2301 102.583 69.2301C102.142 69.2301 101.758 69.1555 101.431 69.0061C101.111 68.8567 100.865 68.6504 100.695 68.3873C100.524 68.1241 100.439 67.8254 100.439 67.4911C100.439 66.9576 100.638 66.5379 101.036 66.2321C101.441 65.9262 102.064 65.7733 102.903 65.7733H104.226C104.226 65.4106 104.116 65.1332 103.895 64.9411C103.675 64.742 103.344 64.6424 102.903 64.6424C102.597 64.6424 102.295 64.6922 101.996 64.7917C101.705 64.8842 101.456 65.0122 101.249 65.1758L100.652 64.0129C100.965 63.7924 101.338 63.6217 101.772 63.5008C102.213 63.3798 102.665 63.3194 103.127 63.3194ZM102.999 68.1099C103.284 68.1099 103.536 68.0459 103.757 67.9178C103.977 67.7827 104.134 67.5871 104.226 67.331V66.7442H103.085C102.402 66.7442 102.06 66.9683 102.06 67.4164C102.06 67.6298 102.142 67.8005 102.306 67.9285C102.476 68.0494 102.708 68.1099 102.999 68.1099Z" fill="white"/>
<path d="M115.959 69.1448V65.7093L114.242 68.59H113.537L111.862 65.6986V69.1448H110.358V63.4047H112.097L113.932 66.7229L115.885 63.4047H117.442L117.464 69.1448H115.959Z" fill="white"/>
<path d="M124.809 63.4047L122.216 69.4969C121.953 70.1584 121.626 70.6243 121.234 70.8945C120.85 71.1648 120.384 71.3 119.837 71.3C119.538 71.3 119.243 71.2537 118.951 71.1613C118.66 71.0688 118.421 70.9408 118.236 70.7772L118.845 69.5929C118.973 69.7067 119.118 69.7956 119.282 69.8596C119.453 69.9236 119.62 69.9556 119.783 69.9556C120.011 69.9556 120.196 69.8987 120.338 69.7849C120.48 69.6782 120.609 69.4969 120.722 69.2408L120.744 69.1875L118.258 63.4047H119.975L121.587 67.299L123.208 63.4047H124.809Z" fill="white"/>
<path d="M129.21 66.1574C129.552 66.2641 129.815 66.4277 130 66.6482C130.192 66.8687 130.288 67.1319 130.288 67.4377C130.288 67.8005 130.163 68.1205 129.914 68.3979C129.665 68.6682 129.324 68.8781 128.89 69.0274C128.456 69.1768 127.965 69.2515 127.418 69.2515C126.97 69.2515 126.529 69.2052 126.095 69.1128C125.661 69.0203 125.259 68.8816 124.889 68.6967L125.337 67.5337C125.942 67.8254 126.61 67.9712 127.343 67.9712C127.734 67.9712 128.04 67.9143 128.261 67.8005C128.488 67.6795 128.602 67.5124 128.602 67.299C128.602 67.1141 128.524 66.9754 128.367 66.8829C128.211 66.7833 127.983 66.7335 127.684 66.7335H126.511V65.6986H127.535C127.827 65.6986 128.051 65.6524 128.207 65.5599C128.364 65.4675 128.442 65.3323 128.442 65.1545C128.442 64.9696 128.342 64.8273 128.143 64.7277C127.951 64.6281 127.674 64.5784 127.311 64.5784C126.756 64.5784 126.152 64.7099 125.497 64.9731L125.092 63.8208C125.888 63.4723 126.664 63.298 127.418 63.298C127.937 63.298 128.399 63.3621 128.805 63.4901C129.217 63.6181 129.541 63.8066 129.776 64.0556C130.01 64.2974 130.128 64.5819 130.128 64.9091C130.128 65.1794 130.046 65.4248 129.882 65.6453C129.719 65.8587 129.495 66.0294 129.21 66.1574Z" fill="white"/>
<path d="M134.518 65.2398C135.265 65.247 135.83 65.4141 136.214 65.7413C136.598 66.0685 136.79 66.5379 136.79 67.1496C136.79 67.7898 136.573 68.2841 136.14 68.6327C135.706 68.9812 135.09 69.1555 134.294 69.1555L131.498 69.1448V63.4047H133.152V65.2398H134.518ZM137.409 63.4047H139.063V69.1448H137.409V63.4047ZM134.144 67.9712C134.464 67.9783 134.71 67.9107 134.881 67.7685C135.051 67.6262 135.137 67.4128 135.137 67.1283C135.137 66.8509 135.051 66.6482 134.881 66.5202C134.717 66.3921 134.472 66.3246 134.144 66.3174L133.152 66.3068V67.9712H134.144Z" fill="white"/>
<path d="M143.196 66.9683H142.332V69.1448H140.667V63.4047H142.332V65.6346H143.228L144.786 63.4047H146.557L144.551 66.1574L146.695 69.1448H144.732L143.196 66.9683Z" fill="white"/>
<path d="M147.513 63.4047H149.166V66.8189L151.962 63.4047H153.487V69.1448H151.834V65.7306L149.049 69.1448H147.513V63.4047Z" fill="white"/>
</g>
<defs>
<filter id="filter0_d_93_100" x="11.0799" y="9.02782" width="67.0932" height="67.093" filterUnits="userSpaceOnUse" color-interpolation-filters="sRGB">
<feFlood flood-opacity="0" result="BackgroundImageFix"/>
<feColorMatrix in="SourceAlpha" type="matrix" values="0 0 0 0 0 0 0 0 0 0 0 0 0 0 0 0 0 0 127 0" result="hardAlpha"/>
<feOffset dy="4.71908"/>
<feGaussianBlur stdDeviation="6.25791"/>
<feComposite in2="hardAlpha" operator="out"/>
<feColorMatrix type="matrix" values="0 0 0 0 0.341176 0 0 0 0 0.12549 0 0 0 0 0.662745 0 0 0 0.56 0"/>
<feBlend mode="normal" in2="BackgroundImageFix" result="effect1_dropShadow_93_100"/>
<feBlend mode="normal" in="SourceGraphic" in2="effect1_dropShadow_93_100" result="shape"/>
</filter>
<filter id="filter1_f_93_100" x="-11.4899" y="-1.02588" width="112.437" height="77.7622" filterUnits="userSpaceOnUse" color-interpolation-filters="sRGB">
<feFlood flood-opacity="0" result="BackgroundImageFix"/>
<feBlend mode="normal" in="SourceGraphic" in2="BackgroundImageFix" result="shape"/>
<feGaussianBlur stdDeviation="13.7469" result="effect1_foregroundBlur_93_100"/>
</filter>
<radialGradient id="paint0_radial_93_100" cx="0" cy="0" r="1" gradientUnits="userSpaceOnUse" gradientTransform="translate(44.7122 18.8763) rotate(90) scale(18.9789)">
<stop offset="0.145833" stop-color="#EC2D70"/>
<stop offset="1" stop-color="#4B1BA9" stop-opacity="0.25"/>
</radialGradient>
<radialGradient id="paint1_radial_93_100" cx="0" cy="0" r="1" gradientUnits="userSpaceOnUse" gradientTransform="translate(44.7122 56.8341) rotate(-90) scale(19.9279 20.7849)">
<stop offset="0.0989583" stop-color="#27FB95"/>
<stop offset="1" stop-color="#5F22C3" stop-opacity="0.25"/>
</radialGradient>
<radialGradient id="paint2_radial_93_100" cx="0" cy="0" r="1" gradientUnits="userSpaceOnUse" gradientTransform="translate(24.9293 37.8552) scale(19.7996 19.98)">
<stop stop-color="#D95E19"/>
<stop offset="1" stop-color="#651FF9" stop-opacity="0.25"/>
</radialGradient>
<radialGradient id="paint3_radial_93_100" cx="0" cy="0" r="1" gradientUnits="userSpaceOnUse" gradientTransform="translate(64.9793 37.8552) rotate(-180) scale(20.2671 22.1771)">
<stop stop-color="#46E5EB"/>
<stop offset="1" stop-color="#651FF9" stop-opacity="0"/>
</radialGradient>
<radialGradient id="paint4_radial_93_100" cx="0" cy="0" r="1" gradientUnits="userSpaceOnUse" gradientTransform="translate(44.7215 16.8246) rotate(90) scale(21.0307)">
<stop offset="0.145833" stop-color="#EC2D70"/>
<stop offset="1" stop-color="#4B1BA9" stop-opacity="0.25"/>
</radialGradient>
<radialGradient id="paint5_radial_93_100" cx="0" cy="0" r="1" gradientUnits="userSpaceOnUse" gradientTransform="translate(44.7215 58.8859) rotate(-90) scale(22.0822 23.0319)">
<stop offset="0.0989583" stop-color="#27FB95"/>
<stop offset="1" stop-color="#5F22C3" stop-opacity="0.25"/>
</radialGradient>
<radialGradient id="paint6_radial_93_100" cx="0" cy="0" r="1" gradientUnits="userSpaceOnUse" gradientTransform="translate(22.7999 37.8552) scale(21.9401 22.14)">
<stop stop-color="#D95E19"/>
<stop offset="1" stop-color="#651FF9" stop-opacity="0.25"/>
</radialGradient>
<radialGradient id="paint7_radial_93_100" cx="0" cy="0" r="1" gradientUnits="userSpaceOnUse" gradientTransform="translate(67.1796 37.8552) rotate(-180) scale(22.4581 24.5746)">
<stop stop-color="#46E5EB"/>
<stop offset="1" stop-color="#651FF9" stop-opacity="0"/>
</radialGradient>
<linearGradient id="paint8_linear_93_100" x1="58.8632" y1="34.4032" x2="22.3872" y2="34.4032" gradientUnits="userSpaceOnUse">
<stop stop-color="#02301C"/>
<stop offset="1" stop-color="#953C75"/>
</linearGradient>
<clipPath id="clip0_93_100">
<rect width="214" height="89.6625" fill="white"/>
</clipPath>
</defs>
</svg>
